<svg clip-rule="evenodd" fill-rule="evenodd" height="512" image-rendering="optimizeQuality" shape-rendering="geometricPrecision" text-rendering="geometricPrecision" viewBox="0 0 512 512" width="512" xmlns="http://www.w3.org/2000/svg"><g id="Layer_x0020_1"><path d="m451 186h-30c-16 0-16-24 0-24h30c16 0 16 24 0 24zm-79 281h-360c-7 0-12-5-12-12v-326c0-5 2-9 6-11 14-8 126-71 131-73 4-1 212 0 235 0 2 0 5 1 6 2l128 71c4 2 6 6 6 11v326c0 7-5 12-12 12zm-244-24v-365l-104 58v307zm256-365v365h104v-307zm-232 365h41v-73c0-35 28-63 63-63s63 28 63 63v73h41v-374h-208zm65 0h78v-73c0-22-17-39-39-39s-39 17-39 39zm-11-340h-30c-16 0-16-24 0-24h30c16 0 16 24 0 24zm65 0h-30c-16 0-16-24 0-24h30c16 0 16 24 0 24zm65 0h-30c-16 0-16-24 0-24h30c16 0 16 24 0 24zm-130 39h-30c-16 0-16-24 0-24h30c16 0 16 24 0 24zm65 0h-30c-16 0-16-24 0-24h30c16 0 16 24 0 24zm65 0h-30c-16 0-16-24 0-24h30c16 0 16 24 0 24zm-130 38h-30c-16 0-16-24 0-24h30c16 0 16 24 0 24zm65 0h-30c-16 0-16-24 0-24h30c16 0 16 24 0 24zm65 0h-30c-16 0-16-24 0-24h30c16 0 16 24 0 24zm-130 39h-30c-16 0-16-24 0-24h30c16 0 16 24 0 24zm65 0h-30c-16 0-16-24 0-24h30c16 0 16 24 0 24zm65 0h-30c-16 0-16-24 0-24h30c16 0 16 24 0 24zm-130 39h-30c-16 0-16-24 0-24h30c16 0 16 24 0 24zm65 0h-30c-16 0-16-24 0-24h30c16 0 16 24 0 24zm65 0h-30c-16 0-16-24 0-24h30c16 0 16 24 0 24zm-130 39h-30c-16 0-16-24 0-24h30c16 0 16 24 0 24zm65 0h-30c-16 0-16-24 0-24h30c16 0 16 24 0 24zm65 0h-30c-16 0-16-24 0-24h30c16 0 16 24 0 24zm-61 113c-6 0-12-5-12-12v-22c0-16 24-16 24 0v22c0 7-5 12-12 12zm-184 19h-30c-16 0-16-24 0-24h30c16 0 16 24 0 24zm0-61h-30c-16 0-16-24 0-24h30c16 0 16 24 0 24zm0-61h-30c-16 0-16-24 0-24h30c16 0 16 24 0 24zm0-60h-30c-16 0-16-24 0-24h30c16 0 16 24 0 24zm0-61h-30c-16 0-16-24 0-24h30c16 0 16 24 0 24zm360 243h-30c-16 0-16-24 0-24h30c16 0 16 24 0 24zm0-61h-30c-16 0-16-24 0-24h30c16 0 16 24 0 24zm0-61h-30c-16 0-16-24 0-24h30c16 0 16 24 0 24zm0-60h-30c-16 0-16-24 0-24h30c16 0 16 24 0 24z" fill="#006ea7"/><g fill="#59aae7"><path d="m241 258c-16 0-16-24 0-24h30c16 0 16 24 0 24zm95-39h-30c-16 0-16-24 0-24h30c16 0 16 24 0 24zm24 224v-374h-208v374h41v-73c0-35 28-63 63-63s63 28 63 63v73zm-154-248c16 0 16 24 0 24h-30c-16 0-16-24 0-24zm0-39c16 0 16 24 0 24h-30c-16 0-16-24 0-24zm0-14h-30c-16 0-16-24 0-24h30c16 0 16 24 0 24zm0-39h-30c-16 0-16-24 0-24h30c16 0 16 24 0 24zm35 116c-16 0-16-24 0-24h30c16 0 16 24 0 24zm0-39c-16 0-16-24 0-24h30c16 0 16 24 0 24zm30-38h-30c-16 0-16-24 0-24h30c16 0 16 24 0 24zm0-39h-30c-16 0-16-24 0-24h30c16 0 16 24 0 24zm35 39c-16 0-16-24 0-24h30c16 0 16 24 0 24zm30-39h-30c-16 0-16-24 0-24h30c16 0 16 24 0 24zm0 77h-30c-16 0-16-24 0-24h30c16 0 16 24 0 24zm-130 54c16 0 16 24 0 24h-30c-16 0-16-24 0-24zm100 24c-16 0-16-24 0-24h30c16 0 16 24 0 24zm-100 15c16 0 16 24 0 24h-30c-16 0-16-24 0-24zm35 24c-16 0-16-24 0-24h30c16 0 16 24 0 24zm65 0c-16 0-16-24 0-24h30c16 0 16 24 0 24z"/><path d="m256 331c-22 0-39 17-39 39v73h78v-73c0-22-17-39-39-39zm19 79c-6 0-12-5-12-12v-22c0-16 24-16 24 0v22c0 7-5 12-12 12z"/><path d="m384 78v365h104v-307zm37 290c-16 0-16-24 0-24h30c16 0 16 24 0 24zm30-61h-30c-16 0-16-24 0-24h30c16 0 16 24 0 24zm0-60h-30c-16 0-16-24 0-24h30c16 0 16 24 0 24zm0-61h-30c-16 0-16-24 0-24h30c16 0 16 24 0 24zm-30 219h30c16 0 16 24 0 24h-30c-16 0-16-24 0-24z"/><path d="m128 443v-365l-104 58v307zm-67-38h30c16 0 16 24 0 24h-30c-16 0-16-24 0-24zm30-37h-30c-16 0-16-24 0-24h30c16 0 16 24 0 24zm0-61h-30c-16 0-16-24 0-24h30c16 0 16 24 0 24zm0-60h-30c-16 0-16-24 0-24h30c16 0 16 24 0 24zm0-61h-30c-16 0-16-24 0-24h30c16 0 16 24 0 24z"/></g></g></svg>